ply
format ascii 1.0
comment created by PolyEditor
comment modified by learnply
element vertex 25
property float64 x
property float64 y
property float64 z
property float64 vx
property float64 vy
property float64 vz
property float64 s
element face 16
property list uint8 int32 vertex_indices
end_header
2 2 0 0 0 0 0
1 2 0 0 0 0 0.9
0 2 0 0 0 0 0
-1 2 0 0 0 0 1.4
-2 2 0 0 0 0 0
2 1 0 0 0 0 1.5
1 1 0 0 0 0 2
0 1 0 0 0 0 1.1
-1 1 0 0 0 0 2
-2 1 0 0 0 0 1.3
2 0 0 0 0 0 0
1 0 0 0 0 0 1.4
0 0 0 0 0 0 0
-1 0 0 0 0 0 0.9
-2 0 0 0 0 0 0
2 -1 0 0 0 0 1.2
1 -1 0 0 0 0 2
0 -1 0 0 0 0 1.4
-1 -1 0 0 0 0 2
-2 -1 0 0 0 0 0.9
2 -2 0 0 0 0 0
1 -2 0 0 0 0 1.3
0 -2 0 0 0 0 0
-1 -2 0 0 0 0 1.2
-2 -2 0 0 0 0 0
4 0 1 6 5
4 1 2 7 6
4 2 3 8 7
4 3 4 9 8
4 5 6 11 10
4 6 7 12 11
4 7 8 13 12
4 8 9 14 13
4 10 11 16 15
4 11 12 17 16
4 12 13 18 17
4 13 14 19 18
4 15 16 21 20
4 16 17 22 21
4 17 18 23 22
4 18 19 24 23